<svg xmlns="http://www.w3.org/2000/svg" width="380" height="520" viewBox="0 0 380 520">
  <rect width="380" height="520" fill="#0f172a"/>
  <rect width="380" height="72" fill="#1e293b"/>
  <line x1="0" y1="72" x2="380" y2="72" stroke="#334155"/>
  <text x="56" y="36" fill="#e2e8f0" font-family="system-ui,sans-serif" font-size="18" font-weight="700">PhishGuard</text>
  <text x="56" y="54" fill="#94a3b8" font-family="system-ui,sans-serif" font-size="12">Gmail phishing analyzer</text>
  <text x="16" y="40" font-size="28">=á</text>

  <rect x="12" y="84" width="356" height="120" rx="10" fill="#1e293b" stroke="#334155"/>
  <rect x="24" y="100" width="56" height="22" rx="11" fill="#14532d"/>
  <text x="34" y="115" fill="#86efac" font-family="system-ui,sans-serif" font-size="11" font-weight="700">LOW</text>
  <text x="24" y="142" fill="#cbd5e1" font-family="system-ui,sans-serif" font-size="13">Risk score</text>
  <text x="320" y="142" fill="#e2e8f0" font-family="system-ui,sans-serif" font-size="13" font-weight="700">12/100</text>
  <text x="24" y="168" fill="#e2e8f0" font-family="system-ui,sans-serif" font-size="14" font-weight="600">New pull request on your repository</text>
  <text x="24" y="188" fill="#94a3b8" font-family="system-ui,sans-serif" font-size="12">GitHub &lt;notifications@github.com&gt;</text>

  <rect x="12" y="214" width="356" height="88" rx="10" fill="#1e293b" stroke="#334155"/>
  <text x="24" y="236" fill="#94a3b8" font-family="system-ui,sans-serif" font-size="11" font-weight="600" letter-spacing="0.05em">FINDINGS</text>
  <rect x="24" y="248" width="332" height="40" rx="8" fill="#0f172a"/>
  <line x1="24" y1="248" x2="24" y2="288" stroke="#22c55e" stroke-width="3"/>
  <text x="36" y="272" fill="#cbd5e1" font-family="system-ui,sans-serif" font-size="13">No phishing indicators detected.</text>

  <rect x="12" y="312" width="356" height="120" rx="10" fill="#1e293b" stroke="#334155"/>
  <text x="24" y="334" fill="#94a3b8" font-family="system-ui,sans-serif" font-size="11" font-weight="600" letter-spacing="0.05em">WHAT TO DO</text>
  <text x="24" y="358" fill="#cbd5e1" font-family="system-ui,sans-serif" font-size="13">No major indicators detected  stay cautious with</text>
  <text x="24" y="376" fill="#cbd5e1" font-family="system-ui,sans-serif" font-size="13">unexpected attachments or requests.</text>

  <line x1="0" y1="460" x2="380" y2="460" stroke="#334155"/>
  <text x="16" y="484" fill="#64748b" font-family="system-ui,sans-serif" font-size="11">All analysis runs locally in your browser.</text>
  <text x="16" y="500" fill="#64748b" font-family="system-ui,sans-serif" font-size="11">No email content is sent to external servers.</text>
</svg>
